<svg width="256" height="256" viewBox="0 0 256 256" fill="none" xmlns="http://www.w3.org/2000/svg">
<rect width="256" height="256" rx="128" fill="#FF9900"/>
<rect x="28" y="28" width="200" height="201" rx="100" fill="black"/>
<path d="M128 208.396C172.01 208.396 207.688 172.646 207.688 128.545C207.688 84.4452 172.01 48.6948 128 48.6948C83.9898 48.6948 48.3125 84.4452 48.3125 128.545C48.3125 172.646 83.9898 208.396 128 208.396Z" fill="black"/>
<path d="M111.801 74.7634L114.813 77.7907L83.7922 108.966L80.78 105.939L111.801 74.7634Z" fill="white" stroke="white"/>
<path d="M83.7837 75.3471L114.274 105.936L111.264 108.966L80.7742 78.377L83.7837 75.3471Z" fill="white" stroke="white"/>
<path d="M63.7471 125.536V126.036C63.7471 160.355 91.668 188.281 125.992 188.281C160.316 188.281 188.237 160.36 188.237 126.036V125.536H192.492V126.036C192.492 162.703 162.659 192.536 125.992 192.536C89.3254 192.536 59.4922 162.703 59.4922 126.036V125.536H63.7471Z" fill="white" stroke="white"/>
<path d="M155.492 73.5358C164.879 73.5358 172.492 81.4019 172.492 91.0358C172.492 100.67 164.879 108.536 155.492 108.536C146.106 108.536 138.492 100.67 138.492 91.0358C138.492 81.4019 146.106 73.5358 155.492 73.5358ZM155.492 77.8258C148.442 77.8258 142.686 83.7355 142.686 91.0358C142.686 98.3361 148.442 104.246 155.492 104.246C162.542 104.246 168.299 98.3361 168.299 91.0358C168.299 83.7355 162.542 77.8258 155.492 77.8258Z" fill="white" stroke="white"/>
<path d="M192.168 120.753L205.404 139.966L205.695 140.389L205.265 140.67L202.521 142.455L202.112 142.72L201.836 142.319L190.713 126.169L174.096 136.986L173.688 137.252L173.411 136.849L171.58 134.181L171.29 133.759L171.72 133.48L191.483 120.617L191.892 120.351L192.168 120.753Z" fill="white" stroke="white"/>
</svg>
